<?xml version="1.0" encoding="utf-8"?>
<!-- Generator: Adobe Illustrator 24.0.0, SVG Export Plug-In . SVG Version: 6.00 Build 0)  -->
<svg version="1.1" id="SVGDoc" xmlns:avocode="https://avocode.com/"
	 xmlns="http://www.w3.org/2000/svg" xmlns:xlink="http://www.w3.org/1999/xlink" x="0px" y="0px" viewBox="0 0 411 538"
	 style="enable-background:new 0 0 411 538;" xml:space="preserve">
<style type="text/css">
	.st0{fill:#30ADF2;}
	.st1{fill:#B9D1E4;}
	.st2{fill:#53A4C0;}
	.st3{fill:#10DBF2;}
	.st4{fill:#31BD45;}
</style>
<desc>Generated with Avocode.</desc>
<g>
	<title>Shape</title>
	<path class="st0" d="M160.8,152c50.1,0,90.7,40.6,90.7,90.7s-40.6,90.7-90.7,90.7"/>
</g>
<g>
	<title>Shape</title>
	<path class="st1" d="M342,349c0,50.3-40.5,91-90.5,91c-50,0-90.5-40.7-90.5-91"/>
</g>
<g>
	<title>Shape</title>
	<path class="st2" d="M1,538V388c0-38.7,31.3-70,70-70c38.7,0,70,31.3,70,70v150"/>
</g>
<g>
	<title>Shape</title>
	<path class="st3" d="M272,0L272,0h139l0,0v329l0,0H272l0,0V0z"/>
</g>
<g>
	<title>Shape</title>
	<path class="st4" d="M71.5,155c39.5,0,71.5,32,71.5,71.5S111,298,71.5,298C32,298,0,266,0,226.5S32,155,71.5,155z"/>
</g>
</svg>
