<?xml version="1.0" encoding="utf-8"?>
<!-- Generator: Adobe Illustrator 24.0.0, SVG Export Plug-In . SVG Version: 6.00 Build 0)  -->
<svg version="1.1" id="SVGDoc" xmlns:avocode="https://avocode.com/"
	 xmlns="http://www.w3.org/2000/svg" xmlns:xlink="http://www.w3.org/1999/xlink" x="0px" y="0px" viewBox="0 0 236 236"
	 style="enable-background:new 0 0 236 236;" xml:space="preserve">
<style type="text/css">
	.st0{fill:#B9D1E4;}
	.st1{fill:#31BD45;}
</style>
<desc>Generated with Avocode.</desc>
<g>
	<title>Shape</title>
	<path class="st0" d="M164.5,93c-20.5,0,0,0-71.5,0c0,24.8,0,52.5,0,71.5c0,39.5,32,71.5,71.5,71.5c39.5,0,71.5-32,71.5-71.5
		C236,125,204,93,164.5,93L164.5,93z"/>
</g>
<g>
	<title>Shape</title>
	<path class="st1" d="M71.5,143c20.5,0,0,0,71.5,0c0-24.8,0-52.5,0-71.5C143,32,111,0,71.5,0C32,0,0,32,0,71.5
		C0,111,32,143,71.5,143z"/>
</g>
</svg>
